<svg width="25" height="25" viewBox="0 0 25 25" fill="none" xmlns="http://www.w3.org/2000/svg">
<path d="M12.5 16.1457C13.5069 16.1457 14.3663 15.7898 15.0781 15.078C15.7899 14.3662 16.1458 13.5068 16.1458 12.4998C16.1458 11.4929 15.7899 10.6335 15.0781 9.92171C14.3663 9.20991 13.5069 8.854 12.5 8.854C11.493 8.854 10.6336 9.20991 9.92183 9.92171C9.21003 10.6335 8.85413 11.4929 8.85413 12.4998C8.85413 13.5068 9.21003 14.3662 9.92183 15.078C10.6336 15.7898 11.493 16.1457 12.5 16.1457ZM12.5 17.7082C11.059 17.7082 9.83069 17.2004 8.81506 16.1847C7.79944 15.1691 7.29163 13.9408 7.29163 12.4998C7.29163 11.0589 7.79944 9.83057 8.81506 8.81494C9.83069 7.79932 11.059 7.2915 12.5 7.2915C13.9409 7.2915 15.1692 7.79932 16.1849 8.81494C17.2005 9.83057 17.7083 11.0589 17.7083 12.4998C17.7083 13.9408 17.2005 15.1691 16.1849 16.1847C15.1692 17.2004 13.9409 17.7082 12.5 17.7082ZM1.82288 13.2811C1.59718 13.2811 1.41055 13.2073 1.26298 13.0597C1.11541 12.9122 1.04163 12.7255 1.04163 12.4998C1.04163 12.2741 1.11541 12.0875 1.26298 11.9399C1.41055 11.7924 1.59718 11.7186 1.82288 11.7186H4.42704C4.65274 11.7186 4.83937 11.7924 4.98694 11.9399C5.13451 12.0875 5.20829 12.2741 5.20829 12.4998C5.20829 12.7255 5.13451 12.9122 4.98694 13.0597C4.83937 13.2073 4.65274 13.2811 4.42704 13.2811H1.82288ZM20.5729 13.2811C20.3472 13.2811 20.1605 13.2073 20.013 13.0597C19.8654 12.9122 19.7916 12.7255 19.7916 12.4998C19.7916 12.2741 19.8654 12.0875 20.013 11.9399C20.1605 11.7924 20.3472 11.7186 20.5729 11.7186H23.177C23.4027 11.7186 23.5894 11.7924 23.7369 11.9399C23.8845 12.0875 23.9583 12.2741 23.9583 12.4998C23.9583 12.7255 23.8845 12.9122 23.7369 13.0597C23.5894 13.2073 23.4027 13.2811 23.177 13.2811H20.5729ZM12.5 5.20817C12.2743 5.20817 12.0876 5.13439 11.9401 4.98682C11.7925 4.83925 11.7187 4.65261 11.7187 4.42692V1.82275C11.7187 1.59706 11.7925 1.41043 11.9401 1.26286C12.0876 1.11529 12.2743 1.0415 12.5 1.0415C12.7257 1.0415 12.9123 1.11529 13.0599 1.26286C13.2074 1.41043 13.2812 1.59706 13.2812 1.82275V4.42692C13.2812 4.65261 13.2074 4.83925 13.0599 4.98682C12.9123 5.13439 12.7257 5.20817 12.5 5.20817ZM12.5 23.9582C12.2743 23.9582 12.0876 23.8844 11.9401 23.7368C11.7925 23.5892 11.7187 23.4026 11.7187 23.1769V20.5728C11.7187 20.3471 11.7925 20.1604 11.9401 20.0129C12.0876 19.8653 12.2743 19.7915 12.5 19.7915C12.7257 19.7915 12.9123 19.8653 13.0599 20.0129C13.2074 20.1604 13.2812 20.3471 13.2812 20.5728V23.1769C13.2812 23.4026 13.2074 23.5892 13.0599 23.7368C12.9123 23.8844 12.7257 23.9582 12.5 23.9582ZM6.24996 7.34359L4.76558 5.88525C4.60933 5.729 4.53555 5.54237 4.54423 5.32536C4.55291 5.10834 4.6267 4.92171 4.76558 4.76546C4.92183 4.60921 5.10847 4.53109 5.32548 4.53109C5.54249 4.53109 5.72913 4.60921 5.88538 4.76546L7.34371 6.24984C7.4826 6.40609 7.55204 6.58838 7.55204 6.79671C7.55204 7.00505 7.4826 7.17866 7.34371 7.31755C7.20482 7.4738 7.02687 7.55192 6.80985 7.55192C6.59284 7.55192 6.40621 7.48248 6.24996 7.34359ZM19.1145 20.2342L17.6562 18.7498C17.5173 18.5936 17.4479 18.407 17.4479 18.1899C17.4479 17.9729 17.526 17.795 17.6823 17.6561C17.8211 17.4998 17.9948 17.4217 18.2031 17.4217C18.4114 17.4217 18.5937 17.4998 18.75 17.6561L20.2343 19.1144C20.3906 19.2707 20.4644 19.4573 20.4557 19.6743C20.447 19.8913 20.3732 20.078 20.2343 20.2342C20.0781 20.3905 19.8915 20.4686 19.6744 20.4686C19.4574 20.4686 19.2708 20.3905 19.1145 20.2342ZM17.6562 7.34359C17.5 7.18734 17.4218 7.00505 17.4218 6.79671C17.4218 6.58838 17.5 6.40609 17.6562 6.24984L19.1145 4.76546C19.2708 4.60921 19.4574 4.53543 19.6744 4.54411C19.8915 4.55279 20.0781 4.62657 20.2343 4.76546C20.3906 4.92171 20.4687 5.10834 20.4687 5.32536C20.4687 5.54237 20.3906 5.729 20.2343 5.88525L18.75 7.34359C18.6111 7.48248 18.4331 7.55192 18.2161 7.55192C17.9991 7.55192 17.8125 7.48248 17.6562 7.34359ZM4.76558 20.2342C4.60933 20.078 4.53121 19.8913 4.53121 19.6743C4.53121 19.4573 4.60933 19.2707 4.76558 19.1144L6.24996 17.6561C6.40621 17.4998 6.5885 17.4217 6.79683 17.4217C7.00517 17.4217 7.18746 17.4998 7.34371 17.6561C7.49996 17.8123 7.57808 17.9946 7.57808 18.203C7.57808 18.4113 7.49996 18.5936 7.34371 18.7498L5.88538 20.2342C5.72913 20.3905 5.54249 20.4642 5.32548 20.4556C5.10847 20.4469 4.92183 20.3731 4.76558 20.2342Z" fill="white"/>
</svg>
