<svg width="19" height="19" viewBox="0 0 19 19" fill="none" xmlns="http://www.w3.org/2000/svg">
<path d="M17.7292 18.8491L10.8802 12.0002C10.3594 12.4516 9.75174 12.8031 9.05729 13.0548C8.36285 13.3066 7.625 13.4325 6.84375 13.4325C4.96875 13.4325 3.38021 12.7814 2.07812 11.4793C0.776042 10.1772 0.125 8.60607 0.125 6.76579C0.125 4.92551 0.776042 3.35433 2.07812 2.05225C3.38021 0.750163 4.96007 0.0991211 6.81771 0.0991211C8.65799 0.0991211 10.2248 0.750163 11.5182 2.05225C12.8116 3.35433 13.4583 4.92551 13.4583 6.76579C13.4583 7.51232 13.3368 8.2328 13.0937 8.92725C12.8507 9.62169 12.4861 10.2727 12 10.8804L18.875 17.7033L17.7292 18.8491ZM6.81771 11.87C8.22396 11.87 9.42187 11.3708 10.4115 10.3726C11.401 9.37429 11.8958 8.17204 11.8958 6.76579C11.8958 5.35954 11.401 4.15728 10.4115 3.15902C9.42187 2.16075 8.22396 1.66162 6.81771 1.66162C5.3941 1.66162 4.18316 2.16075 3.1849 3.15902C2.18663 4.15728 1.6875 5.35954 1.6875 6.76579C1.6875 8.17204 2.18663 9.37429 3.1849 10.3726C4.18316 11.3708 5.3941 11.87 6.81771 11.87V11.87Z" fill="black"/>
</svg>
